cl__1 = 1e+22;
Point(1) = {7.653789711389858e-16, -1.874575902277672e-31, 0, cl__1};
Point(2) = {12.5, -3.061515884555943e-15, -12.5, cl__1};
p1 = newp;
Point(p1 + 1) = {7.559558859306787e-16, 1.197316499031695e-16, 0};
Point(p1 + 2) = {7.279186579370127e-16, 2.36515109219159e-16, 0};
Point(p1 + 3) = {6.819576567614169e-16, 3.474747815975283e-16, 0};
Point(p1 + 4) = {6.19204594788652e-16, 4.498784716502822e-16, 0};
Point(p1 + 5) = {5.412046606699597e-16, 5.412046606699597e-16, 0};
Point(p1 + 6) = {4.498784716502822e-16, 6.19204594788652e-16, 0};
Point(p1 + 7) = {3.474747815975283e-16, 6.819576567614168e-16, 0};
Point(p1 + 8) = {2.36515109219159e-16, 7.279186579370127e-16, 0};
Point(p1 + 9) = {1.197316499031696e-16, 7.559558859306787e-16, 0};
Point(p1 + 10) = {4.686439755694179e-32, 7.653789711389858e-16, 0};
Point(p1 + 11) = {-1.197316499031697e-16, 7.559558859306786e-16, 0};
Point(p1 + 12) = {-2.365151092191589e-16, 7.279186579370127e-16, 0};
Point(p1 + 13) = {-3.474747815975283e-16, 6.819576567614169e-16, 0};
Point(p1 + 14) = {-4.498784716502822e-16, 6.19204594788652e-16, 0};
Point(p1 + 15) = {-5.412046606699597e-16, 5.412046606699597e-16, 0};
Point(p1 + 16) = {-6.192045947886519e-16, 4.498784716502823e-16, 0};
Point(p1 + 17) = {-6.819576567614168e-16, 3.474747815975284e-16, 0};
Point(p1 + 18) = {-7.279186579370127e-16, 2.365151092191591e-16, 0};
Point(p1 + 19) = {-7.559558859306786e-16, 1.197316499031696e-16, 0};
Point(p1 + 20) = {-7.653789711389858e-16, 9.372879511388359e-32, 0};
Point(p1 + 21) = {-7.559558859306787e-16, -1.197316499031694e-16, 0};
Point(p1 + 22) = {-7.279186579370127e-16, -2.365151092191592e-16, 0};
Point(p1 + 23) = {-6.81957656761417e-16, -3.474747815975279e-16, 0};
Point(p1 + 24) = {-6.19204594788652e-16, -4.498784716502822e-16, 0};
Point(p1 + 25) = {-5.412046606699598e-16, -5.412046606699597e-16, 0};
Point(p1 + 26) = {-4.498784716502823e-16, -6.192045947886519e-16, 0};
Point(p1 + 27) = {-3.474747815975284e-16, -6.819576567614168e-16, 0};
Point(p1 + 28) = {-2.365151092191591e-16, -7.279186579370127e-16, 0};
Point(p1 + 29) = {-1.197316499031697e-16, -7.559558859306786e-16, 0};
Point(p1 + 30) = {-1.405931926708254e-31, -7.653789711389858e-16, 0};
Point(p1 + 31) = {1.197316499031694e-16, -7.559558859306787e-16, 0};
Point(p1 + 32) = {2.365151092191589e-16, -7.279186579370127e-16, 0};
Point(p1 + 33) = {3.474747815975282e-16, -6.819576567614169e-16, 0};
Point(p1 + 34) = {4.498784716502821e-16, -6.19204594788652e-16, 0};
Point(p1 + 35) = {5.412046606699596e-16, -5.412046606699598e-16, 0};
Point(p1 + 36) = {6.192045947886519e-16, -4.498784716502824e-16, 0};
Point(p1 + 37) = {6.819576567614168e-16, -3.474747815975285e-16, 0};
Point(p1 + 38) = {7.279186579370127e-16, -2.365151092191592e-16, 0};
Point(p1 + 39) = {7.559558859306786e-16, -1.197316499031697e-16, 0};
Spline(1) = {1, p1 + 1, p1 + 2, p1 + 3, p1 + 4, p1 + 5, p1 + 6, p1 + 7, p1 + 8, p1 + 9, p1 + 10, p1 + 11, p1 + 12, p1 + 13, p1 + 14, p1 + 15, p1 + 16, p1 + 17, p1 + 18, p1 + 19, p1 + 20, p1 + 21, p1 + 22, p1 + 23, p1 + 24, p1 + 25, p1 + 26, p1 + 27, p1 + 28, p1 + 29, p1 + 30, p1 + 31, p1 + 32, p1 + 33, p1 + 34, p1 + 35, p1 + 36, p1 + 37, p1 + 38, p1 + 39, 1};
p2 = newp;
Point(p2 + 1) = {0, 0, -12.5};
Circle(2) = {2, p2 + 1, 1};
p3 = newp;
Point(p3 + 1) = {12.34610425743922, 1.955430813002886, -12.5};
Point(p3 + 2) = {11.88820645368942, 3.862712429686842, -12.5};
Point(p3 + 3) = {11.1375815523546, 5.674881246744334, -12.5};
Point(p3 + 4) = {10.11271242968684, 7.347315653655914, -12.5};
Point(p3 + 5) = {8.838834764831844, 8.838834764831843, -12.5};
Point(p3 + 6) = {7.347315653655914, 10.11271242968684, -12.5};
Point(p3 + 7) = {5.674881246744335, 11.1375815523546, -12.5};
Point(p3 + 8) = {3.862712429686843, 11.88820645368942, -12.5};
Point(p3 + 9) = {1.955430813002887, 12.34610425743922, -12.5};
Point(p3 + 10) = {7.653789711389858e-16, 12.5, -12.5};
Point(p3 + 11) = {-1.955430813002888, 12.34610425743922, -12.5};
Point(p3 + 12) = {-3.862712429686842, 11.88820645368942, -12.5};
Point(p3 + 13) = {-5.674881246744333, 11.1375815523546, -12.5};
Point(p3 + 14) = {-7.347315653655913, 10.11271242968684, -12.5};
Point(p3 + 15) = {-8.838834764831843, 8.838834764831844, -12.5};
Point(p3 + 16) = {-10.11271242968684, 7.347315653655915, -12.5};
Point(p3 + 17) = {-11.1375815523546, 5.674881246744336, -12.5};
Point(p3 + 18) = {-11.88820645368942, 3.862712429686844, -12.5};
Point(p3 + 19) = {-12.34610425743922, 1.955430813002887, -12.5};
Point(p3 + 20) = {-12.5, 1.530757942277972e-15, -12.5};
Point(p3 + 21) = {-12.34610425743922, -1.955430813002884, -12.5};
Point(p3 + 22) = {-11.88820645368942, -3.862712429686847, -12.5};
Point(p3 + 23) = {-11.1375815523546, -5.674881246744328, -12.5};
Point(p3 + 24) = {-10.11271242968684, -7.347315653655913, -12.5};
Point(p3 + 25) = {-8.838834764831846, -8.838834764831843, -12.5};
Point(p3 + 26) = {-7.347315653655915, -10.11271242968684, -12.5};
Point(p3 + 27) = {-5.674881246744336, -11.1375815523546, -12.5};
Point(p3 + 28) = {-3.862712429686844, -11.88820645368942, -12.5};
Point(p3 + 29) = {-1.955430813002888, -12.34610425743922, -12.5};
Point(p3 + 30) = {-2.296136913416957e-15, -12.5, -12.5};
Point(p3 + 31) = {1.955430813002883, -12.34610425743922, -12.5};
Point(p3 + 32) = {3.86271242968684, -11.88820645368942, -12.5};
Point(p3 + 33) = {5.674881246744333, -11.1375815523546, -12.5};
Point(p3 + 34) = {7.347315653655912, -10.11271242968684, -12.5};
Point(p3 + 35) = {8.838834764831843, -8.838834764831846, -12.5};
Point(p3 + 36) = {10.11271242968684, -7.347315653655917, -12.5};
Point(p3 + 37) = {11.1375815523546, -5.674881246744337, -12.5};
Point(p3 + 38) = {11.88820645368942, -3.862712429686845, -12.5};
Point(p3 + 39) = {12.34610425743922, -1.955430813002889, -12.5};
Spline(3) = {2, p3 + 1, p3 + 2, p3 + 3, p3 + 4, p3 + 5, p3 + 6, p3 + 7, p3 + 8, p3 + 9, p3 + 10, p3 + 11, p3 + 12, p3 + 13, p3 + 14, p3 + 15, p3 + 16, p3 + 17, p3 + 18, p3 + 19, p3 + 20, p3 + 21, p3 + 22, p3 + 23, p3 + 24, p3 + 25, p3 + 26, p3 + 27, p3 + 28, p3 + 29, p3 + 30, p3 + 31, p3 + 32, p3 + 33, p3 + 34, p3 + 35, p3 + 36, p3 + 37, p3 + 38, p3 + 39, 2};
Curve Loop(1) = {1, -2, 3, 2};
Surface(1) = {1};
Curve Loop(2) = {3};
Plane Surface(2) = {2};
Surface Loop(1) = {1, 2};
Volume(1) = {1};
Physical Surface("Dome") = {1};
Physical Surface("dome_fixed") = {2};
Physical Volume("Rigid_dome") = {1};
